<svg xmlns="http://www.w3.org/2000/svg" xmlns:xlink="http://www.w3.org/1999/xlink" id="terminal" baseProfile="full" viewBox="0 0 687 489" width="687" version="1.1">
    <defs>
        <termtosvg:template_settings xmlns:termtosvg="https://github.com/nbedos/termtosvg">
            <termtosvg:screen_geometry columns="80" rows="24"/>
            <termtosvg:animation type="css"/>
        </termtosvg:template_settings>
        <style type="text/css" id="generated-style"><![CDATA[#screen {
                font-family: 'DejaVu Sans Mono', monospace;
                font-style: normal;
                font-size: 14px;
            }

        text {
            dominant-baseline: text-before-edge;
            white-space: pre;
        }

            :root {
                --animation-duration: 43320ms;
            }

            @keyframes roll {
                0.000%{transform:translateY(0px)}
5.524%{transform:translateY(-442px)}
6.784%{transform:translateY(-884px)}
11.205%{transform:translateY(-1326px)}
19.938%{transform:translateY(-1768px)}
20.178%{transform:translateY(-2210px)}
21.316%{transform:translateY(-2652px)}
31.406%{transform:translateY(-3094px)}
32.401%{transform:translateY(-3536px)}
34.601%{transform:translateY(-3978px)}
43.241%{transform:translateY(-4420px)}
43.433%{transform:translateY(-4862px)}
44.441%{transform:translateY(-5304px)}
55.157%{transform:translateY(-5746px)}
56.175%{transform:translateY(-6188px)}
58.349%{transform:translateY(-6630px)}
66.916%{transform:translateY(-7072px)}
69.303%{transform:translateY(-7514px)}
70.697%{transform:translateY(-7956px)}
72.094%{transform:translateY(-8398px)}
73.463%{transform:translateY(-8840px)}
74.827%{transform:translateY(-9282px)}
76.187%{transform:translateY(-9724px)}
77.562%{transform:translateY(-10166px)}
78.950%{transform:translateY(-10608px)}
80.346%{transform:translateY(-11050px)}
81.738%{transform:translateY(-11492px)}
81.761%{transform:translateY(-11934px)}
83.349%{transform:translateY(-12376px)}
93.075%{transform:translateY(-12818px)}
100.000%{transform:translateY(-12818px)}
            }

            #screen_view {
                animation-duration: 43320ms;
                animation-iteration-count:infinite;
                animation-name:roll;
                animation-timing-function: steps(1,end);
                animation-fill-mode: forwards;
            }
        ]]></style>
        <style type="text/css" id="user-style">
            /* The colors defined below are the default 16 colors used for rendering text of the terminal. Adjust
               them as needed.
               PowerShell colors based on https://en.wikipedia.org/wiki/ANSI_escape_code#Colors */
            .foreground {fill: #cccccc;}
            .background {fill: #0c0c0c;}
            .color0 {fill: #0c0c0c;}
            .color1 {fill: #c50f1f;}
            .color2 {fill: #13a10e;}
            .color3 {fill: #c19c00;}
            .color4 {fill: #0037da;}
            .color5 {fill: #881798;}
            .color6 {fill: #3a96dd;}
            .color7 {fill: #cccccc;}
            .color8 {fill: #767676;}
            .color9 {fill: #e74856;}
            .color10 {fill: #16c60c;}
            .color11 {fill: #f9f1a5;}
            .color12 {fill: #3b78ff;}
            .color13 {fill: #b4009e;}
            .color14 {fill: #61d6d6;}
            .color15 {fill: #f2f2f2;}
        </style>
    </defs>
    <rect id="terminalui" class="background" width="100%" height="100%" ry="4.5826941"/>
    <circle cx="24" cy="23" r="7" class="color1"/>
    <circle cx="44" cy="23" r="7" class="color3"/>
    <circle cx="64" cy="23" r="7" class="color2"/>
    <svg id="screen" width="640" height="408" x="23" y="50" viewBox="0 0 640 408" preserveAspectRatio="xMidYMin slice"><rect class="background" height="100%" width="100%" x="0" y="0"/><defs><g id="g1"><text x="0" textLength="160" font-weight="bold" class="color10">niuzehao@workstation</text><text x="160" textLength="8" class="foreground">:</text><text x="168" textLength="64" font-weight="bold" class="color12">~/gnn-gp</text><text x="232" textLength="16" class="foreground">$ </text><text x="248" textLength="8" class="background"> </text></g><g id="g2"><text x="0" textLength="160" font-weight="bold" class="color10">niuzehao@workstation</text><text x="160" textLength="8" class="foreground">:</text><text x="168" textLength="64" font-weight="bold" class="color12">~/gnn-gp</text><text x="232" textLength="16" class="foreground">$ </text><text x="248" textLength="256" class="background">python3 src/main.py cora gcn gp </text></g><g id="g3"><text x="0" textLength="160" font-weight="bold" class="color10">niuzehao@workstation</text><text x="160" textLength="8" class="foreground">:</text><text x="168" textLength="64" font-weight="bold" class="color12">~/gnn-gp</text><text x="232" textLength="264" class="foreground">$ python3 src/main.py cora gcn gp</text></g><g id="g4"><text x="0" textLength="8" class="background"> </text></g><g id="g5"><text x="0" textLength="104" class="foreground">Dataset: Cora</text></g><g id="g6"><text x="0" textLength="112" class="foreground">Method: GCN-GP</text></g><g id="g7"><text x="0" textLength="200" class="foreground">Dataset loaded to: cuda:0</text></g><g id="g8"><text x="0" textLength="352" class="foreground">Number of runs: 1 for deterministic results.</text></g><g id="g9"><text x="0" textLength="32" class="foreground">----</text></g><g id="g10"><text x="0" textLength="504" class="foreground">Run: 01, time: 0.1040, train: 1.0000, val: 0.7920, test: 0.8280</text></g><g id="g11"><text x="0" textLength="160" font-weight="bold" class="color10">niuzehao@workstation</text><text x="160" textLength="8" class="foreground">:</text><text x="168" textLength="64" font-weight="bold" class="color12">~/gnn-gp</text><text x="232" textLength="16" class="foreground">$ </text><text x="248" textLength="360" class="background">python3 src/main.py cora gcn gp --fraction=1 </text></g><g id="g12"><text x="0" textLength="160" font-weight="bold" class="color10">niuzehao@workstation</text><text x="160" textLength="8" class="foreground">:</text><text x="168" textLength="64" font-weight="bold" class="color12">~/gnn-gp</text><text x="232" textLength="368" class="foreground">$ python3 src/main.py cora gcn gp --fraction=1</text></g><g id="g13"><text x="0" textLength="128" class="foreground">Method: GCN-GP-X</text></g><g id="g14"><text x="0" textLength="496" class="foreground">Using Nystrom: 1/1 of training nodes chosen as landmark nodes.</text></g><g id="g15"><text x="0" textLength="504" class="foreground">Run: 01, time: 0.0824, train: 1.0000, val: 0.7780, test: 0.7980</text></g><g id="g16"><text x="0" textLength="160" font-weight="bold" class="color10">niuzehao@workstation</text><text x="160" textLength="8" class="foreground">:</text><text x="168" textLength="64" font-weight="bold" class="color12">~/gnn-gp</text><text x="232" textLength="16" class="foreground">$ </text><text x="248" textLength="264" class="background">python3 src/main.py cora gcn gnn </text></g><g id="g17"><text x="0" textLength="160" font-weight="bold" class="color10">niuzehao@workstation</text><text x="160" textLength="8" class="foreground">:</text><text x="168" textLength="64" font-weight="bold" class="color12">~/gnn-gp</text><text x="232" textLength="272" class="foreground">$ python3 src/main.py cora gcn gnn</text></g><g id="g18"><text x="0" textLength="88" class="foreground">Method: GCN</text></g><g id="g19"><text x="0" textLength="304" class="foreground">Number of runs: 10 for random results.</text></g><g id="g20"><text x="0" textLength="504" class="foreground">Run: 01, time: 0.5946, train: 1.0000, val: 0.7960, test: 0.8090</text></g><g id="g21"><text x="0" textLength="504" class="foreground">Run: 02, time: 0.5950, train: 1.0000, val: 0.7980, test: 0.8240</text></g><g id="g22"><text x="0" textLength="504" class="foreground">Run: 03, time: 0.5963, train: 1.0000, val: 0.8080, test: 0.8230</text></g><g id="g23"><text x="0" textLength="504" class="foreground">Run: 04, time: 0.5850, train: 1.0000, val: 0.7880, test: 0.8170</text></g><g id="g24"><text x="0" textLength="504" class="foreground">Run: 05, time: 0.5825, train: 1.0000, val: 0.8000, test: 0.8090</text></g><g id="g25"><text x="0" textLength="504" class="foreground">Run: 06, time: 0.5810, train: 1.0000, val: 0.8040, test: 0.8220</text></g><g id="g26"><text x="0" textLength="504" class="foreground">Run: 07, time: 0.5876, train: 1.0000, val: 0.7980, test: 0.8210</text></g><g id="g27"><text x="0" textLength="504" class="foreground">Run: 08, time: 0.5919, train: 1.0000, val: 0.7980, test: 0.8200</text></g><g id="g28"><text x="0" textLength="504" class="foreground">Run: 09, time: 0.5960, train: 1.0000, val: 0.8020, test: 0.8220</text></g><g id="g29"><text x="0" textLength="504" class="foreground">Run: 10, time: 0.5938, train: 1.0000, val: 0.8020, test: 0.8160</text></g><g id="g30"><text x="0" textLength="504" class="foreground">Mean:    time: 0.5904, train: 1.0000, val: 0.7994, test: 0.8183</text></g><g id="g31"><text x="0" textLength="504" class="foreground">SD:      time: 0.0058, train: 0.0000, val: 0.0053, test: 0.0055</text></g><g id="g32"><text x="0" textLength="160" font-weight="bold" class="color10">niuzehao@workstation</text><text x="160" textLength="8" class="foreground">:</text><text x="168" textLength="64" font-weight="bold" class="color12">~/gnn-gp</text><text x="232" textLength="16" class="foreground">$ </text></g><g id="g33"><text x="0" textLength="32" class="foreground">exit</text></g></defs><g id="screen_view"><g><rect x="248" y="0" width="8" height="17" class="foreground"/><use xlink:href="#g1" y="0"/></g><g><rect x="248" y="442" width="256" height="17" class="foreground"/><use xlink:href="#g2" y="442"/></g><g><use xlink:href="#g3" y="884"/><rect x="0" y="901" width="8" height="17" class="foreground"/><use xlink:href="#g4" y="901"/></g><g><use xlink:href="#g3" y="1326"/><use xlink:href="#g5" y="1343"/><use xlink:href="#g6" y="1360"/><rect x="0" y="1377" width="8" height="17" class="foreground"/><use xlink:href="#g4" y="1377"/></g><g><use xlink:href="#g3" y="1768"/><use xlink:href="#g5" y="1785"/><use xlink:href="#g6" y="1802"/><use xlink:href="#g7" y="1819"/><use xlink:href="#g8" y="1836"/><use xlink:href="#g9" y="1853"/><rect x="0" y="1870" width="8" height="17" class="foreground"/><use xlink:href="#g4" y="1870"/></g><g><use xlink:href="#g3" y="2210"/><use xlink:href="#g5" y="2227"/><use xlink:href="#g6" y="2244"/><use xlink:href="#g7" y="2261"/><use xlink:href="#g8" y="2278"/><use xlink:href="#g9" y="2295"/><use xlink:href="#g10" y="2312"/><use xlink:href="#g9" y="2329"/><rect x="0" y="2346" width="8" height="17" class="foreground"/><use xlink:href="#g4" y="2346"/></g><g><use xlink:href="#g3" y="2652"/><use xlink:href="#g5" y="2669"/><use xlink:href="#g6" y="2686"/><use xlink:href="#g7" y="2703"/><use xlink:href="#g8" y="2720"/><use xlink:href="#g9" y="2737"/><use xlink:href="#g10" y="2754"/><use xlink:href="#g9" y="2771"/><rect x="248" y="2788" width="8" height="17" class="foreground"/><use xlink:href="#g1" y="2788"/></g><g><use xlink:href="#g3" y="3094"/><use xlink:href="#g5" y="3111"/><use xlink:href="#g6" y="3128"/><use xlink:href="#g7" y="3145"/><use xlink:href="#g8" y="3162"/><use xlink:href="#g9" y="3179"/><use xlink:href="#g10" y="3196"/><use xlink:href="#g9" y="3213"/><rect x="248" y="3230" width="360" height="17" class="foreground"/><use xlink:href="#g11" y="3230"/></g><g><use xlink:href="#g3" y="3536"/><use xlink:href="#g5" y="3553"/><use xlink:href="#g6" y="3570"/><use xlink:href="#g7" y="3587"/><use xlink:href="#g8" y="3604"/><use xlink:href="#g9" y="3621"/><use xlink:href="#g10" y="3638"/><use xlink:href="#g9" y="3655"/><use xlink:href="#g12" y="3672"/><rect x="0" y="3689" width="8" height="17" class="foreground"/><use xlink:href="#g4" y="3689"/></g><g><use xlink:href="#g3" y="3978"/><use xlink:href="#g5" y="3995"/><use xlink:href="#g6" y="4012"/><use xlink:href="#g7" y="4029"/><use xlink:href="#g8" y="4046"/><use xlink:href="#g9" y="4063"/><use xlink:href="#g10" y="4080"/><use xlink:href="#g9" y="4097"/><use xlink:href="#g12" y="4114"/><use xlink:href="#g5" y="4131"/><use xlink:href="#g13" y="4148"/><rect x="0" y="4165" width="8" height="17" class="foreground"/><use xlink:href="#g4" y="4165"/></g><g><use xlink:href="#g3" y="4420"/><use xlink:href="#g5" y="4437"/><use xlink:href="#g6" y="4454"/><use xlink:href="#g7" y="4471"/><use xlink:href="#g8" y="4488"/><use xlink:href="#g9" y="4505"/><use xlink:href="#g10" y="4522"/><use xlink:href="#g9" y="4539"/><use xlink:href="#g12" y="4556"/><use xlink:href="#g5" y="4573"/><use xlink:href="#g13" y="4590"/><use xlink:href="#g7" y="4607"/><use xlink:href="#g8" y="4624"/><use xlink:href="#g14" y="4641"/><use xlink:href="#g9" y="4658"/><rect x="0" y="4675" width="8" height="17" class="foreground"/><use xlink:href="#g4" y="4675"/></g><g><use xlink:href="#g3" y="4862"/><use xlink:href="#g5" y="4879"/><use xlink:href="#g6" y="4896"/><use xlink:href="#g7" y="4913"/><use xlink:href="#g8" y="4930"/><use xlink:href="#g9" y="4947"/><use xlink:href="#g10" y="4964"/><use xlink:href="#g9" y="4981"/><use xlink:href="#g12" y="4998"/><use xlink:href="#g5" y="5015"/><use xlink:href="#g13" y="5032"/><use xlink:href="#g7" y="5049"/><use xlink:href="#g8" y="5066"/><use xlink:href="#g14" y="5083"/><use xlink:href="#g9" y="5100"/><use xlink:href="#g15" y="5117"/><use xlink:href="#g9" y="5134"/><rect x="0" y="5151" width="8" height="17" class="foreground"/><use xlink:href="#g4" y="5151"/></g><g><use xlink:href="#g3" y="5304"/><use xlink:href="#g5" y="5321"/><use xlink:href="#g6" y="5338"/><use xlink:href="#g7" y="5355"/><use xlink:href="#g8" y="5372"/><use xlink:href="#g9" y="5389"/><use xlink:href="#g10" y="5406"/><use xlink:href="#g9" y="5423"/><use xlink:href="#g12" y="5440"/><use xlink:href="#g5" y="5457"/><use xlink:href="#g13" y="5474"/><use xlink:href="#g7" y="5491"/><use xlink:href="#g8" y="5508"/><use xlink:href="#g14" y="5525"/><use xlink:href="#g9" y="5542"/><use xlink:href="#g15" y="5559"/><use xlink:href="#g9" y="5576"/><rect x="248" y="5593" width="8" height="17" class="foreground"/><use xlink:href="#g1" y="5593"/></g><g><use xlink:href="#g3" y="5746"/><use xlink:href="#g5" y="5763"/><use xlink:href="#g6" y="5780"/><use xlink:href="#g7" y="5797"/><use xlink:href="#g8" y="5814"/><use xlink:href="#g9" y="5831"/><use xlink:href="#g10" y="5848"/><use xlink:href="#g9" y="5865"/><use xlink:href="#g12" y="5882"/><use xlink:href="#g5" y="5899"/><use xlink:href="#g13" y="5916"/><use xlink:href="#g7" y="5933"/><use xlink:href="#g8" y="5950"/><use xlink:href="#g14" y="5967"/><use xlink:href="#g9" y="5984"/><use xlink:href="#g15" y="6001"/><use xlink:href="#g9" y="6018"/><rect x="248" y="6035" width="264" height="17" class="foreground"/><use xlink:href="#g16" y="6035"/></g><g><use xlink:href="#g3" y="6188"/><use xlink:href="#g5" y="6205"/><use xlink:href="#g6" y="6222"/><use xlink:href="#g7" y="6239"/><use xlink:href="#g8" y="6256"/><use xlink:href="#g9" y="6273"/><use xlink:href="#g10" y="6290"/><use xlink:href="#g9" y="6307"/><use xlink:href="#g12" y="6324"/><use xlink:href="#g5" y="6341"/><use xlink:href="#g13" y="6358"/><use xlink:href="#g7" y="6375"/><use xlink:href="#g8" y="6392"/><use xlink:href="#g14" y="6409"/><use xlink:href="#g9" y="6426"/><use xlink:href="#g15" y="6443"/><use xlink:href="#g9" y="6460"/><use xlink:href="#g17" y="6477"/><rect x="0" y="6494" width="8" height="17" class="foreground"/><use xlink:href="#g4" y="6494"/></g><g><use xlink:href="#g3" y="6630"/><use xlink:href="#g5" y="6647"/><use xlink:href="#g6" y="6664"/><use xlink:href="#g7" y="6681"/><use xlink:href="#g8" y="6698"/><use xlink:href="#g9" y="6715"/><use xlink:href="#g10" y="6732"/><use xlink:href="#g9" y="6749"/><use xlink:href="#g12" y="6766"/><use xlink:href="#g5" y="6783"/><use xlink:href="#g13" y="6800"/><use xlink:href="#g7" y="6817"/><use xlink:href="#g8" y="6834"/><use xlink:href="#g14" y="6851"/><use xlink:href="#g9" y="6868"/><use xlink:href="#g15" y="6885"/><use xlink:href="#g9" y="6902"/><use xlink:href="#g17" y="6919"/><use xlink:href="#g5" y="6936"/><use xlink:href="#g18" y="6953"/><rect x="0" y="6970" width="8" height="17" class="foreground"/><use xlink:href="#g4" y="6970"/></g><g><use xlink:href="#g3" y="7072"/><use xlink:href="#g5" y="7089"/><use xlink:href="#g6" y="7106"/><use xlink:href="#g7" y="7123"/><use xlink:href="#g8" y="7140"/><use xlink:href="#g9" y="7157"/><use xlink:href="#g10" y="7174"/><use xlink:href="#g9" y="7191"/><use xlink:href="#g12" y="7208"/><use xlink:href="#g5" y="7225"/><use xlink:href="#g13" y="7242"/><use xlink:href="#g7" y="7259"/><use xlink:href="#g8" y="7276"/><use xlink:href="#g14" y="7293"/><use xlink:href="#g9" y="7310"/><use xlink:href="#g15" y="7327"/><use xlink:href="#g9" y="7344"/><use xlink:href="#g17" y="7361"/><use xlink:href="#g5" y="7378"/><use xlink:href="#g18" y="7395"/><use xlink:href="#g7" y="7412"/><use xlink:href="#g19" y="7429"/><use xlink:href="#g9" y="7446"/><rect x="0" y="7463" width="8" height="17" class="foreground"/><use xlink:href="#g4" y="7463"/></g><g><use xlink:href="#g5" y="7514"/><use xlink:href="#g6" y="7531"/><use xlink:href="#g7" y="7548"/><use xlink:href="#g8" y="7565"/><use xlink:href="#g9" y="7582"/><use xlink:href="#g10" y="7599"/><use xlink:href="#g9" y="7616"/><use xlink:href="#g12" y="7633"/><use xlink:href="#g5" y="7650"/><use xlink:href="#g13" y="7667"/><use xlink:href="#g7" y="7684"/><use xlink:href="#g8" y="7701"/><use xlink:href="#g14" y="7718"/><use xlink:href="#g9" y="7735"/><use xlink:href="#g15" y="7752"/><use xlink:href="#g9" y="7769"/><use xlink:href="#g17" y="7786"/><use xlink:href="#g5" y="7803"/><use xlink:href="#g18" y="7820"/><use xlink:href="#g7" y="7837"/><use xlink:href="#g19" y="7854"/><use xlink:href="#g9" y="7871"/><use xlink:href="#g20" y="7888"/><rect x="0" y="7905" width="8" height="17" class="foreground"/><use xlink:href="#g4" y="7905"/></g><g><use xlink:href="#g6" y="7956"/><use xlink:href="#g7" y="7973"/><use xlink:href="#g8" y="7990"/><use xlink:href="#g9" y="8007"/><use xlink:href="#g10" y="8024"/><use xlink:href="#g9" y="8041"/><use xlink:href="#g12" y="8058"/><use xlink:href="#g5" y="8075"/><use xlink:href="#g13" y="8092"/><use xlink:href="#g7" y="8109"/><use xlink:href="#g8" y="8126"/><use xlink:href="#g14" y="8143"/><use xlink:href="#g9" y="8160"/><use xlink:href="#g15" y="8177"/><use xlink:href="#g9" y="8194"/><use xlink:href="#g17" y="8211"/><use xlink:href="#g5" y="8228"/><use xlink:href="#g18" y="8245"/><use xlink:href="#g7" y="8262"/><use xlink:href="#g19" y="8279"/><use xlink:href="#g9" y="8296"/><use xlink:href="#g20" y="8313"/><use xlink:href="#g21" y="8330"/><rect x="0" y="8347" width="8" height="17" class="foreground"/><use xlink:href="#g4" y="8347"/></g><g><use xlink:href="#g7" y="8398"/><use xlink:href="#g8" y="8415"/><use xlink:href="#g9" y="8432"/><use xlink:href="#g10" y="8449"/><use xlink:href="#g9" y="8466"/><use xlink:href="#g12" y="8483"/><use xlink:href="#g5" y="8500"/><use xlink:href="#g13" y="8517"/><use xlink:href="#g7" y="8534"/><use xlink:href="#g8" y="8551"/><use xlink:href="#g14" y="8568"/><use xlink:href="#g9" y="8585"/><use xlink:href="#g15" y="8602"/><use xlink:href="#g9" y="8619"/><use xlink:href="#g17" y="8636"/><use xlink:href="#g5" y="8653"/><use xlink:href="#g18" y="8670"/><use xlink:href="#g7" y="8687"/><use xlink:href="#g19" y="8704"/><use xlink:href="#g9" y="8721"/><use xlink:href="#g20" y="8738"/><use xlink:href="#g21" y="8755"/><use xlink:href="#g22" y="8772"/><rect x="0" y="8789" width="8" height="17" class="foreground"/><use xlink:href="#g4" y="8789"/></g><g><use xlink:href="#g8" y="8840"/><use xlink:href="#g9" y="8857"/><use xlink:href="#g10" y="8874"/><use xlink:href="#g9" y="8891"/><use xlink:href="#g12" y="8908"/><use xlink:href="#g5" y="8925"/><use xlink:href="#g13" y="8942"/><use xlink:href="#g7" y="8959"/><use xlink:href="#g8" y="8976"/><use xlink:href="#g14" y="8993"/><use xlink:href="#g9" y="9010"/><use xlink:href="#g15" y="9027"/><use xlink:href="#g9" y="9044"/><use xlink:href="#g17" y="9061"/><use xlink:href="#g5" y="9078"/><use xlink:href="#g18" y="9095"/><use xlink:href="#g7" y="9112"/><use xlink:href="#g19" y="9129"/><use xlink:href="#g9" y="9146"/><use xlink:href="#g20" y="9163"/><use xlink:href="#g21" y="9180"/><use xlink:href="#g22" y="9197"/><use xlink:href="#g23" y="9214"/><rect x="0" y="9231" width="8" height="17" class="foreground"/><use xlink:href="#g4" y="9231"/></g><g><use xlink:href="#g9" y="9282"/><use xlink:href="#g10" y="9299"/><use xlink:href="#g9" y="9316"/><use xlink:href="#g12" y="9333"/><use xlink:href="#g5" y="9350"/><use xlink:href="#g13" y="9367"/><use xlink:href="#g7" y="9384"/><use xlink:href="#g8" y="9401"/><use xlink:href="#g14" y="9418"/><use xlink:href="#g9" y="9435"/><use xlink:href="#g15" y="9452"/><use xlink:href="#g9" y="9469"/><use xlink:href="#g17" y="9486"/><use xlink:href="#g5" y="9503"/><use xlink:href="#g18" y="9520"/><use xlink:href="#g7" y="9537"/><use xlink:href="#g19" y="9554"/><use xlink:href="#g9" y="9571"/><use xlink:href="#g20" y="9588"/><use xlink:href="#g21" y="9605"/><use xlink:href="#g22" y="9622"/><use xlink:href="#g23" y="9639"/><use xlink:href="#g24" y="9656"/><rect x="0" y="9673" width="8" height="17" class="foreground"/><use xlink:href="#g4" y="9673"/></g><g><use xlink:href="#g10" y="9724"/><use xlink:href="#g9" y="9741"/><use xlink:href="#g12" y="9758"/><use xlink:href="#g5" y="9775"/><use xlink:href="#g13" y="9792"/><use xlink:href="#g7" y="9809"/><use xlink:href="#g8" y="9826"/><use xlink:href="#g14" y="9843"/><use xlink:href="#g9" y="9860"/><use xlink:href="#g15" y="9877"/><use xlink:href="#g9" y="9894"/><use xlink:href="#g17" y="9911"/><use xlink:href="#g5" y="9928"/><use xlink:href="#g18" y="9945"/><use xlink:href="#g7" y="9962"/><use xlink:href="#g19" y="9979"/><use xlink:href="#g9" y="9996"/><use xlink:href="#g20" y="10013"/><use xlink:href="#g21" y="10030"/><use xlink:href="#g22" y="10047"/><use xlink:href="#g23" y="10064"/><use xlink:href="#g24" y="10081"/><use xlink:href="#g25" y="10098"/><rect x="0" y="10115" width="8" height="17" class="foreground"/><use xlink:href="#g4" y="10115"/></g><g><use xlink:href="#g9" y="10166"/><use xlink:href="#g12" y="10183"/><use xlink:href="#g5" y="10200"/><use xlink:href="#g13" y="10217"/><use xlink:href="#g7" y="10234"/><use xlink:href="#g8" y="10251"/><use xlink:href="#g14" y="10268"/><use xlink:href="#g9" y="10285"/><use xlink:href="#g15" y="10302"/><use xlink:href="#g9" y="10319"/><use xlink:href="#g17" y="10336"/><use xlink:href="#g5" y="10353"/><use xlink:href="#g18" y="10370"/><use xlink:href="#g7" y="10387"/><use xlink:href="#g19" y="10404"/><use xlink:href="#g9" y="10421"/><use xlink:href="#g20" y="10438"/><use xlink:href="#g21" y="10455"/><use xlink:href="#g22" y="10472"/><use xlink:href="#g23" y="10489"/><use xlink:href="#g24" y="10506"/><use xlink:href="#g25" y="10523"/><use xlink:href="#g26" y="10540"/><rect x="0" y="10557" width="8" height="17" class="foreground"/><use xlink:href="#g4" y="10557"/></g><g><use xlink:href="#g12" y="10608"/><use xlink:href="#g5" y="10625"/><use xlink:href="#g13" y="10642"/><use xlink:href="#g7" y="10659"/><use xlink:href="#g8" y="10676"/><use xlink:href="#g14" y="10693"/><use xlink:href="#g9" y="10710"/><use xlink:href="#g15" y="10727"/><use xlink:href="#g9" y="10744"/><use xlink:href="#g17" y="10761"/><use xlink:href="#g5" y="10778"/><use xlink:href="#g18" y="10795"/><use xlink:href="#g7" y="10812"/><use xlink:href="#g19" y="10829"/><use xlink:href="#g9" y="10846"/><use xlink:href="#g20" y="10863"/><use xlink:href="#g21" y="10880"/><use xlink:href="#g22" y="10897"/><use xlink:href="#g23" y="10914"/><use xlink:href="#g24" y="10931"/><use xlink:href="#g25" y="10948"/><use xlink:href="#g26" y="10965"/><use xlink:href="#g27" y="10982"/><rect x="0" y="10999" width="8" height="17" class="foreground"/><use xlink:href="#g4" y="10999"/></g><g><use xlink:href="#g5" y="11050"/><use xlink:href="#g13" y="11067"/><use xlink:href="#g7" y="11084"/><use xlink:href="#g8" y="11101"/><use xlink:href="#g14" y="11118"/><use xlink:href="#g9" y="11135"/><use xlink:href="#g15" y="11152"/><use xlink:href="#g9" y="11169"/><use xlink:href="#g17" y="11186"/><use xlink:href="#g5" y="11203"/><use xlink:href="#g18" y="11220"/><use xlink:href="#g7" y="11237"/><use xlink:href="#g19" y="11254"/><use xlink:href="#g9" y="11271"/><use xlink:href="#g20" y="11288"/><use xlink:href="#g21" y="11305"/><use xlink:href="#g22" y="11322"/><use xlink:href="#g23" y="11339"/><use xlink:href="#g24" y="11356"/><use xlink:href="#g25" y="11373"/><use xlink:href="#g26" y="11390"/><use xlink:href="#g27" y="11407"/><use xlink:href="#g28" y="11424"/><rect x="0" y="11441" width="8" height="17" class="foreground"/><use xlink:href="#g4" y="11441"/></g><g><use xlink:href="#g13" y="11492"/><use xlink:href="#g7" y="11509"/><use xlink:href="#g8" y="11526"/><use xlink:href="#g14" y="11543"/><use xlink:href="#g9" y="11560"/><use xlink:href="#g15" y="11577"/><use xlink:href="#g9" y="11594"/><use xlink:href="#g17" y="11611"/><use xlink:href="#g5" y="11628"/><use xlink:href="#g18" y="11645"/><use xlink:href="#g7" y="11662"/><use xlink:href="#g19" y="11679"/><use xlink:href="#g9" y="11696"/><use xlink:href="#g20" y="11713"/><use xlink:href="#g21" y="11730"/><use xlink:href="#g22" y="11747"/><use xlink:href="#g23" y="11764"/><use xlink:href="#g24" y="11781"/><use xlink:href="#g25" y="11798"/><use xlink:href="#g26" y="11815"/><use xlink:href="#g27" y="11832"/><use xlink:href="#g28" y="11849"/><use xlink:href="#g29" y="11866"/><rect x="0" y="11883" width="8" height="17" class="foreground"/><use xlink:href="#g4" y="11883"/></g><g><use xlink:href="#g9" y="11934"/><use xlink:href="#g15" y="11951"/><use xlink:href="#g9" y="11968"/><use xlink:href="#g17" y="11985"/><use xlink:href="#g5" y="12002"/><use xlink:href="#g18" y="12019"/><use xlink:href="#g7" y="12036"/><use xlink:href="#g19" y="12053"/><use xlink:href="#g9" y="12070"/><use xlink:href="#g20" y="12087"/><use xlink:href="#g21" y="12104"/><use xlink:href="#g22" y="12121"/><use xlink:href="#g23" y="12138"/><use xlink:href="#g24" y="12155"/><use xlink:href="#g25" y="12172"/><use xlink:href="#g26" y="12189"/><use xlink:href="#g27" y="12206"/><use xlink:href="#g28" y="12223"/><use xlink:href="#g29" y="12240"/><use xlink:href="#g9" y="12257"/><use xlink:href="#g30" y="12274"/><use xlink:href="#g31" y="12291"/><use xlink:href="#g9" y="12308"/><rect x="0" y="12325" width="8" height="17" class="foreground"/><use xlink:href="#g4" y="12325"/></g><g><use xlink:href="#g9" y="12376"/><use xlink:href="#g15" y="12393"/><use xlink:href="#g9" y="12410"/><use xlink:href="#g17" y="12427"/><use xlink:href="#g5" y="12444"/><use xlink:href="#g18" y="12461"/><use xlink:href="#g7" y="12478"/><use xlink:href="#g19" y="12495"/><use xlink:href="#g9" y="12512"/><use xlink:href="#g20" y="12529"/><use xlink:href="#g21" y="12546"/><use xlink:href="#g22" y="12563"/><use xlink:href="#g23" y="12580"/><use xlink:href="#g24" y="12597"/><use xlink:href="#g25" y="12614"/><use xlink:href="#g26" y="12631"/><use xlink:href="#g27" y="12648"/><use xlink:href="#g28" y="12665"/><use xlink:href="#g29" y="12682"/><use xlink:href="#g9" y="12699"/><use xlink:href="#g30" y="12716"/><use xlink:href="#g31" y="12733"/><use xlink:href="#g9" y="12750"/><rect x="248" y="12767" width="8" height="17" class="foreground"/><use xlink:href="#g1" y="12767"/></g><g><use xlink:href="#g9" y="12818"/><use xlink:href="#g17" y="12835"/><use xlink:href="#g5" y="12852"/><use xlink:href="#g18" y="12869"/><use xlink:href="#g7" y="12886"/><use xlink:href="#g19" y="12903"/><use xlink:href="#g9" y="12920"/><use xlink:href="#g20" y="12937"/><use xlink:href="#g21" y="12954"/><use xlink:href="#g22" y="12971"/><use xlink:href="#g23" y="12988"/><use xlink:href="#g24" y="13005"/><use xlink:href="#g25" y="13022"/><use xlink:href="#g26" y="13039"/><use xlink:href="#g27" y="13056"/><use xlink:href="#g28" y="13073"/><use xlink:href="#g29" y="13090"/><use xlink:href="#g9" y="13107"/><use xlink:href="#g30" y="13124"/><use xlink:href="#g31" y="13141"/><use xlink:href="#g9" y="13158"/><use xlink:href="#g32" y="13175"/><use xlink:href="#g33" y="13192"/><rect x="0" y="13209" width="8" height="17" class="foreground"/><use xlink:href="#g4" y="13209"/></g></g></svg>
</svg>