<svg xmlns="http://www.w3.org/2000/svg" xmlns:xlink="http://www.w3.org/1999/xlink" id="terminal" baseProfile="full" viewBox="0 0 960 512" width="960" version="1.1">
    <defs>
        <termtosvg:template_settings xmlns:termtosvg="https://github.com/nbedos/termtosvg">
            <termtosvg:screen_geometry columns="120" rows="30"/>
            <termtosvg:animation type="css"/>
        </termtosvg:template_settings>
        <style type="text/css" id="generated-style"><![CDATA[#screen {
                font-family: 'DejaVu Sans Mono', monospace;
                font-style: normal;
                font-size: 14px;
            }

        text {
            dominant-baseline: text-before-edge;
            white-space: pre;
        }

            :root {
                --animation-duration: 46533ms;
            }

            @keyframes roll {
                0.000%{transform:translateY(0px)}
7.203%{transform:translateY(-544px)}
10.601%{transform:translateY(-1088px)}
10.608%{transform:translateY(-1632px)}
13.259%{transform:translateY(-2176px)}
21.267%{transform:translateY(-2720px)}
21.492%{transform:translateY(-3264px)}
22.483%{transform:translateY(-3808px)}
32.025%{transform:translateY(-4352px)}
34.326%{transform:translateY(-4896px)}
34.337%{transform:translateY(-5440px)}
36.387%{transform:translateY(-5984px)}
44.186%{transform:translateY(-6528px)}
44.358%{transform:translateY(-7072px)}
45.273%{transform:translateY(-7616px)}
53.942%{transform:translateY(-8160px)}
55.423%{transform:translateY(-8704px)}
55.440%{transform:translateY(-9248px)}
57.488%{transform:translateY(-9792px)}
65.418%{transform:translateY(-10336px)}
67.086%{transform:translateY(-10880px)}
68.549%{transform:translateY(-11424px)}
70.032%{transform:translateY(-11968px)}
71.517%{transform:translateY(-12512px)}
72.991%{transform:translateY(-13056px)}
74.468%{transform:translateY(-13600px)}
75.948%{transform:translateY(-14144px)}
77.438%{transform:translateY(-14688px)}
78.914%{transform:translateY(-15232px)}
80.395%{transform:translateY(-15776px)}
80.420%{transform:translateY(-16320px)}
81.757%{transform:translateY(-16864px)}
97.823%{transform:translateY(-17408px)}
97.851%{transform:translateY(-17952px)}
100.000%{transform:translateY(-17952px)}
            }

            #screen_view {
                animation-duration: 46533ms;
                animation-iteration-count:infinite;
                animation-name:roll;
                animation-timing-function: steps(1,end);
                animation-fill-mode: forwards;
            }
        ]]></style>
        <style type="text/css" id="user-style">
            /* The colors defined below are the default 16 colors used for rendering text of the terminal. Adjust
               them as needed.
               PowerShell colors based on https://en.wikipedia.org/wiki/ANSI_escape_code#Colors */
            .foreground {fill: #cccccc;}
            .background {fill: #0c0c0c;}
            .color0 {fill: #0c0c0c;}
            .color1 {fill: #c50f1f;}
            .color2 {fill: #13a10e;}
            .color3 {fill: #c19c00;}
            .color4 {fill: #0037da;}
            .color5 {fill: #881798;}
            .color6 {fill: #3a96dd;}
            .color7 {fill: #cccccc;}
            .color8 {fill: #767676;}
            .color9 {fill: #e74856;}
            .color10 {fill: #16c60c;}
            .color11 {fill: #f9f1a5;}
            .color12 {fill: #3b78ff;}
            .color13 {fill: #b4009e;}
            .color14 {fill: #61d6d6;}
            .color15 {fill: #f2f2f2;}
        </style>
    </defs>
    <svg id="screen" width="960" height="510" viewBox="0 0 960 510" preserveAspectRatio="xMidYMin slice">
    <rect class="background" height="100%" width="100%" x="0" y="0"/><defs><g id="g1"><text x="0" textLength="160" font-weight="bold" class="color10">niuzehao@workstation</text><text x="160" textLength="8" class="foreground">:</text><text x="168" textLength="64" font-weight="bold" class="color12">~/gnn-gp</text><text x="232" textLength="16" class="foreground">$ </text><text x="248" textLength="8" class="background"> </text></g><g id="g2"><text x="0" textLength="160" font-weight="bold" class="color10">niuzehao@workstation</text><text x="160" textLength="8" class="foreground">:</text><text x="168" textLength="64" font-weight="bold" class="color12">~/gnn-gp</text><text x="232" textLength="16" class="foreground">$ </text><text x="248" textLength="456" class="background">python3 src/main.py --data=cora --method=gcn --action=gp </text></g><g id="g3"><text x="0" textLength="160" font-weight="bold" class="color10">niuzehao@workstation</text><text x="160" textLength="8" class="foreground">:</text><text x="168" textLength="64" font-weight="bold" class="color12">~/gnn-gp</text><text x="232" textLength="464" class="foreground">$ python3 src/main.py --data=cora --method=gcn --action=gp</text></g><g id="g4"><text x="0" textLength="8" class="background"> </text></g><g id="g5"><text x="0" textLength="104" class="foreground">Dataset: Cora</text></g><g id="g6"><text x="0" textLength="112" class="foreground">Method: GCN-GP</text></g><g id="g7"><text x="0" textLength="192" class="foreground">Dataset loaded to cuda:0</text></g><g id="g8"><text x="0" textLength="232" class="foreground">No randomness. Run only once.</text></g><g id="g9"><text x="0" textLength="32" class="foreground">----</text></g><g id="g10"><text x="0" textLength="504" class="foreground">Run: 01, time: 0.1047, train: 1.0000, val: 0.7920, test: 0.8280</text></g><g id="g11"><text x="0" textLength="160" font-weight="bold" class="color10">niuzehao@workstation</text><text x="160" textLength="8" class="foreground">:</text><text x="168" textLength="64" font-weight="bold" class="color12">~/gnn-gp</text><text x="232" textLength="16" class="foreground">$ </text><text x="248" textLength="640" class="background">python3 src/main.py --data=cora --method=gcn --action=gp --fraction=1 # Nystrom </text></g><g id="g12"><text x="0" textLength="160" font-weight="bold" class="color10">niuzehao@workstation</text><text x="160" textLength="8" class="foreground">:</text><text x="168" textLength="64" font-weight="bold" class="color12">~/gnn-gp</text><text x="232" textLength="648" class="foreground">$ python3 src/main.py --data=cora --method=gcn --action=gp --fraction=1 # Nystrom</text></g><g id="g13"><text x="0" textLength="488" class="foreground">Using Nystrom. Randomly select 100 percent of landmark points</text></g><g id="g14"><text x="0" textLength="504" class="foreground">Run: 01, time: 0.0802, train: 1.0000, val: 0.7780, test: 0.7980</text></g><g id="g15"><text x="0" textLength="160" font-weight="bold" class="color10">niuzehao@workstation</text><text x="160" textLength="8" class="foreground">:</text><text x="168" textLength="64" font-weight="bold" class="color12">~/gnn-gp</text><text x="232" textLength="16" class="foreground">$ </text><text x="248" textLength="464" class="background">python3 src/main.py --data=cora --method=gcn --action=gnn </text></g><g id="g16"><text x="0" textLength="160" font-weight="bold" class="color10">niuzehao@workstation</text><text x="160" textLength="8" class="foreground">:</text><text x="168" textLength="64" font-weight="bold" class="color12">~/gnn-gp</text><text x="232" textLength="472" class="foreground">$ python3 src/main.py --data=cora --method=gcn --action=gnn</text></g><g id="g17"><text x="0" textLength="88" class="foreground">Method: GCN</text></g><g id="g18"><text x="0" textLength="328" class="foreground">Number of runs not given. Set to 10 runs.</text></g><g id="g19"><text x="0" textLength="504" class="foreground">Run: 01, time: 0.5381, train: 1.0000, val: 0.7960, test: 0.8090</text></g><g id="g20"><text x="0" textLength="504" class="foreground">Run: 02, time: 0.6725, train: 1.0000, val: 0.7980, test: 0.8240</text></g><g id="g21"><text x="0" textLength="504" class="foreground">Run: 03, time: 0.6822, train: 1.0000, val: 0.8080, test: 0.8230</text></g><g id="g22"><text x="0" textLength="504" class="foreground">Run: 04, time: 0.6823, train: 1.0000, val: 0.7880, test: 0.8170</text></g><g id="g23"><text x="0" textLength="504" class="foreground">Run: 05, time: 0.6776, train: 1.0000, val: 0.8000, test: 0.8090</text></g><g id="g24"><text x="0" textLength="504" class="foreground">Run: 06, time: 0.6784, train: 1.0000, val: 0.8040, test: 0.8220</text></g><g id="g25"><text x="0" textLength="504" class="foreground">Run: 07, time: 0.6795, train: 1.0000, val: 0.7980, test: 0.8210</text></g><g id="g26"><text x="0" textLength="504" class="foreground">Run: 08, time: 0.6852, train: 1.0000, val: 0.7980, test: 0.8200</text></g><g id="g27"><text x="0" textLength="504" class="foreground">Run: 09, time: 0.6785, train: 1.0000, val: 0.8020, test: 0.8220</text></g><g id="g28"><text x="0" textLength="504" class="foreground">Run: 10, time: 0.6805, train: 1.0000, val: 0.8020, test: 0.8160</text></g><g id="g29"><text x="0" textLength="504" class="foreground">Mean:    time: 0.6655, train: 1.0000, val: 0.7994, test: 0.8183</text></g><g id="g30"><text x="0" textLength="504" class="foreground">SD:      time: 0.0449, train: 0.0000, val: 0.0053, test: 0.0055</text></g><g id="g31"><text x="0" textLength="160" font-weight="bold" class="color10">niuzehao@workstation</text><text x="160" textLength="8" class="foreground">:</text><text x="168" textLength="64" font-weight="bold" class="color12">~/gnn-gp</text><text x="232" textLength="16" class="foreground">$ </text></g><g id="g32"><text x="0" textLength="32" class="foreground">exit</text></g></defs><g id="screen_view"><g><rect x="248" y="0" width="8" height="17" class="foreground"/><use xlink:href="#g1" y="0"/></g><g><rect x="248" y="544" width="456" height="17" class="foreground"/><use xlink:href="#g2" y="544"/></g><g><use xlink:href="#g3" y="1088"/><rect x="0" y="1105" width="8" height="17" class="foreground"/><use xlink:href="#g4" y="1105"/></g><g><use xlink:href="#g3" y="1632"/><rect x="0" y="1649" width="8" height="17" class="foreground"/><use xlink:href="#g4" y="1649"/></g><g><use xlink:href="#g3" y="2176"/><use xlink:href="#g5" y="2193"/><use xlink:href="#g6" y="2210"/><rect x="0" y="2227" width="8" height="17" class="foreground"/><use xlink:href="#g4" y="2227"/></g><g><use xlink:href="#g3" y="2720"/><use xlink:href="#g5" y="2737"/><use xlink:href="#g6" y="2754"/><use xlink:href="#g7" y="2771"/><use xlink:href="#g8" y="2788"/><use xlink:href="#g9" y="2805"/><rect x="0" y="2822" width="8" height="17" class="foreground"/><use xlink:href="#g4" y="2822"/></g><g><use xlink:href="#g3" y="3264"/><use xlink:href="#g5" y="3281"/><use xlink:href="#g6" y="3298"/><use xlink:href="#g7" y="3315"/><use xlink:href="#g8" y="3332"/><use xlink:href="#g9" y="3349"/><use xlink:href="#g10" y="3366"/><use xlink:href="#g9" y="3383"/><rect x="0" y="3400" width="8" height="17" class="foreground"/><use xlink:href="#g4" y="3400"/></g><g><use xlink:href="#g3" y="3808"/><use xlink:href="#g5" y="3825"/><use xlink:href="#g6" y="3842"/><use xlink:href="#g7" y="3859"/><use xlink:href="#g8" y="3876"/><use xlink:href="#g9" y="3893"/><use xlink:href="#g10" y="3910"/><use xlink:href="#g9" y="3927"/><rect x="248" y="3944" width="8" height="17" class="foreground"/><use xlink:href="#g1" y="3944"/></g><g><use xlink:href="#g3" y="4352"/><use xlink:href="#g5" y="4369"/><use xlink:href="#g6" y="4386"/><use xlink:href="#g7" y="4403"/><use xlink:href="#g8" y="4420"/><use xlink:href="#g9" y="4437"/><use xlink:href="#g10" y="4454"/><use xlink:href="#g9" y="4471"/><rect x="248" y="4488" width="640" height="17" class="foreground"/><use xlink:href="#g11" y="4488"/></g><g><use xlink:href="#g3" y="4896"/><use xlink:href="#g5" y="4913"/><use xlink:href="#g6" y="4930"/><use xlink:href="#g7" y="4947"/><use xlink:href="#g8" y="4964"/><use xlink:href="#g9" y="4981"/><use xlink:href="#g10" y="4998"/><use xlink:href="#g9" y="5015"/><use xlink:href="#g12" y="5032"/><rect x="0" y="5049" width="8" height="17" class="foreground"/><use xlink:href="#g4" y="5049"/></g><g><use xlink:href="#g3" y="5440"/><use xlink:href="#g5" y="5457"/><use xlink:href="#g6" y="5474"/><use xlink:href="#g7" y="5491"/><use xlink:href="#g8" y="5508"/><use xlink:href="#g9" y="5525"/><use xlink:href="#g10" y="5542"/><use xlink:href="#g9" y="5559"/><use xlink:href="#g12" y="5576"/><rect x="0" y="5593" width="8" height="17" class="foreground"/><use xlink:href="#g4" y="5593"/></g><g><use xlink:href="#g3" y="5984"/><use xlink:href="#g5" y="6001"/><use xlink:href="#g6" y="6018"/><use xlink:href="#g7" y="6035"/><use xlink:href="#g8" y="6052"/><use xlink:href="#g9" y="6069"/><use xlink:href="#g10" y="6086"/><use xlink:href="#g9" y="6103"/><use xlink:href="#g12" y="6120"/><use xlink:href="#g5" y="6137"/><use xlink:href="#g6" y="6154"/><rect x="0" y="6171" width="8" height="17" class="foreground"/><use xlink:href="#g4" y="6171"/></g><g><use xlink:href="#g3" y="6528"/><use xlink:href="#g5" y="6545"/><use xlink:href="#g6" y="6562"/><use xlink:href="#g7" y="6579"/><use xlink:href="#g8" y="6596"/><use xlink:href="#g9" y="6613"/><use xlink:href="#g10" y="6630"/><use xlink:href="#g9" y="6647"/><use xlink:href="#g12" y="6664"/><use xlink:href="#g5" y="6681"/><use xlink:href="#g6" y="6698"/><use xlink:href="#g7" y="6715"/><use xlink:href="#g13" y="6732"/><use xlink:href="#g8" y="6749"/><use xlink:href="#g9" y="6766"/><rect x="0" y="6783" width="8" height="17" class="foreground"/><use xlink:href="#g4" y="6783"/></g><g><use xlink:href="#g3" y="7072"/><use xlink:href="#g5" y="7089"/><use xlink:href="#g6" y="7106"/><use xlink:href="#g7" y="7123"/><use xlink:href="#g8" y="7140"/><use xlink:href="#g9" y="7157"/><use xlink:href="#g10" y="7174"/><use xlink:href="#g9" y="7191"/><use xlink:href="#g12" y="7208"/><use xlink:href="#g5" y="7225"/><use xlink:href="#g6" y="7242"/><use xlink:href="#g7" y="7259"/><use xlink:href="#g13" y="7276"/><use xlink:href="#g8" y="7293"/><use xlink:href="#g9" y="7310"/><use xlink:href="#g14" y="7327"/><use xlink:href="#g9" y="7344"/><rect x="0" y="7361" width="8" height="17" class="foreground"/><use xlink:href="#g4" y="7361"/></g><g><use xlink:href="#g3" y="7616"/><use xlink:href="#g5" y="7633"/><use xlink:href="#g6" y="7650"/><use xlink:href="#g7" y="7667"/><use xlink:href="#g8" y="7684"/><use xlink:href="#g9" y="7701"/><use xlink:href="#g10" y="7718"/><use xlink:href="#g9" y="7735"/><use xlink:href="#g12" y="7752"/><use xlink:href="#g5" y="7769"/><use xlink:href="#g6" y="7786"/><use xlink:href="#g7" y="7803"/><use xlink:href="#g13" y="7820"/><use xlink:href="#g8" y="7837"/><use xlink:href="#g9" y="7854"/><use xlink:href="#g14" y="7871"/><use xlink:href="#g9" y="7888"/><rect x="248" y="7905" width="8" height="17" class="foreground"/><use xlink:href="#g1" y="7905"/></g><g><use xlink:href="#g3" y="8160"/><use xlink:href="#g5" y="8177"/><use xlink:href="#g6" y="8194"/><use xlink:href="#g7" y="8211"/><use xlink:href="#g8" y="8228"/><use xlink:href="#g9" y="8245"/><use xlink:href="#g10" y="8262"/><use xlink:href="#g9" y="8279"/><use xlink:href="#g12" y="8296"/><use xlink:href="#g5" y="8313"/><use xlink:href="#g6" y="8330"/><use xlink:href="#g7" y="8347"/><use xlink:href="#g13" y="8364"/><use xlink:href="#g8" y="8381"/><use xlink:href="#g9" y="8398"/><use xlink:href="#g14" y="8415"/><use xlink:href="#g9" y="8432"/><rect x="248" y="8449" width="464" height="17" class="foreground"/><use xlink:href="#g15" y="8449"/></g><g><use xlink:href="#g3" y="8704"/><use xlink:href="#g5" y="8721"/><use xlink:href="#g6" y="8738"/><use xlink:href="#g7" y="8755"/><use xlink:href="#g8" y="8772"/><use xlink:href="#g9" y="8789"/><use xlink:href="#g10" y="8806"/><use xlink:href="#g9" y="8823"/><use xlink:href="#g12" y="8840"/><use xlink:href="#g5" y="8857"/><use xlink:href="#g6" y="8874"/><use xlink:href="#g7" y="8891"/><use xlink:href="#g13" y="8908"/><use xlink:href="#g8" y="8925"/><use xlink:href="#g9" y="8942"/><use xlink:href="#g14" y="8959"/><use xlink:href="#g9" y="8976"/><use xlink:href="#g16" y="8993"/><rect x="0" y="9010" width="8" height="17" class="foreground"/><use xlink:href="#g4" y="9010"/></g><g><use xlink:href="#g3" y="9248"/><use xlink:href="#g5" y="9265"/><use xlink:href="#g6" y="9282"/><use xlink:href="#g7" y="9299"/><use xlink:href="#g8" y="9316"/><use xlink:href="#g9" y="9333"/><use xlink:href="#g10" y="9350"/><use xlink:href="#g9" y="9367"/><use xlink:href="#g12" y="9384"/><use xlink:href="#g5" y="9401"/><use xlink:href="#g6" y="9418"/><use xlink:href="#g7" y="9435"/><use xlink:href="#g13" y="9452"/><use xlink:href="#g8" y="9469"/><use xlink:href="#g9" y="9486"/><use xlink:href="#g14" y="9503"/><use xlink:href="#g9" y="9520"/><use xlink:href="#g16" y="9537"/><rect x="0" y="9554" width="8" height="17" class="foreground"/><use xlink:href="#g4" y="9554"/></g><g><use xlink:href="#g3" y="9792"/><use xlink:href="#g5" y="9809"/><use xlink:href="#g6" y="9826"/><use xlink:href="#g7" y="9843"/><use xlink:href="#g8" y="9860"/><use xlink:href="#g9" y="9877"/><use xlink:href="#g10" y="9894"/><use xlink:href="#g9" y="9911"/><use xlink:href="#g12" y="9928"/><use xlink:href="#g5" y="9945"/><use xlink:href="#g6" y="9962"/><use xlink:href="#g7" y="9979"/><use xlink:href="#g13" y="9996"/><use xlink:href="#g8" y="10013"/><use xlink:href="#g9" y="10030"/><use xlink:href="#g14" y="10047"/><use xlink:href="#g9" y="10064"/><use xlink:href="#g16" y="10081"/><use xlink:href="#g5" y="10098"/><use xlink:href="#g17" y="10115"/><rect x="0" y="10132" width="8" height="17" class="foreground"/><use xlink:href="#g4" y="10132"/></g><g><use xlink:href="#g3" y="10336"/><use xlink:href="#g5" y="10353"/><use xlink:href="#g6" y="10370"/><use xlink:href="#g7" y="10387"/><use xlink:href="#g8" y="10404"/><use xlink:href="#g9" y="10421"/><use xlink:href="#g10" y="10438"/><use xlink:href="#g9" y="10455"/><use xlink:href="#g12" y="10472"/><use xlink:href="#g5" y="10489"/><use xlink:href="#g6" y="10506"/><use xlink:href="#g7" y="10523"/><use xlink:href="#g13" y="10540"/><use xlink:href="#g8" y="10557"/><use xlink:href="#g9" y="10574"/><use xlink:href="#g14" y="10591"/><use xlink:href="#g9" y="10608"/><use xlink:href="#g16" y="10625"/><use xlink:href="#g5" y="10642"/><use xlink:href="#g17" y="10659"/><use xlink:href="#g7" y="10676"/><use xlink:href="#g18" y="10693"/><use xlink:href="#g9" y="10710"/><rect x="0" y="10727" width="8" height="17" class="foreground"/><use xlink:href="#g4" y="10727"/></g><g><use xlink:href="#g3" y="10880"/><use xlink:href="#g5" y="10897"/><use xlink:href="#g6" y="10914"/><use xlink:href="#g7" y="10931"/><use xlink:href="#g8" y="10948"/><use xlink:href="#g9" y="10965"/><use xlink:href="#g10" y="10982"/><use xlink:href="#g9" y="10999"/><use xlink:href="#g12" y="11016"/><use xlink:href="#g5" y="11033"/><use xlink:href="#g6" y="11050"/><use xlink:href="#g7" y="11067"/><use xlink:href="#g13" y="11084"/><use xlink:href="#g8" y="11101"/><use xlink:href="#g9" y="11118"/><use xlink:href="#g14" y="11135"/><use xlink:href="#g9" y="11152"/><use xlink:href="#g16" y="11169"/><use xlink:href="#g5" y="11186"/><use xlink:href="#g17" y="11203"/><use xlink:href="#g7" y="11220"/><use xlink:href="#g18" y="11237"/><use xlink:href="#g9" y="11254"/><use xlink:href="#g19" y="11271"/><rect x="0" y="11288" width="8" height="17" class="foreground"/><use xlink:href="#g4" y="11288"/></g><g><use xlink:href="#g3" y="11424"/><use xlink:href="#g5" y="11441"/><use xlink:href="#g6" y="11458"/><use xlink:href="#g7" y="11475"/><use xlink:href="#g8" y="11492"/><use xlink:href="#g9" y="11509"/><use xlink:href="#g10" y="11526"/><use xlink:href="#g9" y="11543"/><use xlink:href="#g12" y="11560"/><use xlink:href="#g5" y="11577"/><use xlink:href="#g6" y="11594"/><use xlink:href="#g7" y="11611"/><use xlink:href="#g13" y="11628"/><use xlink:href="#g8" y="11645"/><use xlink:href="#g9" y="11662"/><use xlink:href="#g14" y="11679"/><use xlink:href="#g9" y="11696"/><use xlink:href="#g16" y="11713"/><use xlink:href="#g5" y="11730"/><use xlink:href="#g17" y="11747"/><use xlink:href="#g7" y="11764"/><use xlink:href="#g18" y="11781"/><use xlink:href="#g9" y="11798"/><use xlink:href="#g19" y="11815"/><use xlink:href="#g20" y="11832"/><rect x="0" y="11849" width="8" height="17" class="foreground"/><use xlink:href="#g4" y="11849"/></g><g><use xlink:href="#g3" y="11968"/><use xlink:href="#g5" y="11985"/><use xlink:href="#g6" y="12002"/><use xlink:href="#g7" y="12019"/><use xlink:href="#g8" y="12036"/><use xlink:href="#g9" y="12053"/><use xlink:href="#g10" y="12070"/><use xlink:href="#g9" y="12087"/><use xlink:href="#g12" y="12104"/><use xlink:href="#g5" y="12121"/><use xlink:href="#g6" y="12138"/><use xlink:href="#g7" y="12155"/><use xlink:href="#g13" y="12172"/><use xlink:href="#g8" y="12189"/><use xlink:href="#g9" y="12206"/><use xlink:href="#g14" y="12223"/><use xlink:href="#g9" y="12240"/><use xlink:href="#g16" y="12257"/><use xlink:href="#g5" y="12274"/><use xlink:href="#g17" y="12291"/><use xlink:href="#g7" y="12308"/><use xlink:href="#g18" y="12325"/><use xlink:href="#g9" y="12342"/><use xlink:href="#g19" y="12359"/><use xlink:href="#g20" y="12376"/><use xlink:href="#g21" y="12393"/><rect x="0" y="12410" width="8" height="17" class="foreground"/><use xlink:href="#g4" y="12410"/></g><g><use xlink:href="#g3" y="12512"/><use xlink:href="#g5" y="12529"/><use xlink:href="#g6" y="12546"/><use xlink:href="#g7" y="12563"/><use xlink:href="#g8" y="12580"/><use xlink:href="#g9" y="12597"/><use xlink:href="#g10" y="12614"/><use xlink:href="#g9" y="12631"/><use xlink:href="#g12" y="12648"/><use xlink:href="#g5" y="12665"/><use xlink:href="#g6" y="12682"/><use xlink:href="#g7" y="12699"/><use xlink:href="#g13" y="12716"/><use xlink:href="#g8" y="12733"/><use xlink:href="#g9" y="12750"/><use xlink:href="#g14" y="12767"/><use xlink:href="#g9" y="12784"/><use xlink:href="#g16" y="12801"/><use xlink:href="#g5" y="12818"/><use xlink:href="#g17" y="12835"/><use xlink:href="#g7" y="12852"/><use xlink:href="#g18" y="12869"/><use xlink:href="#g9" y="12886"/><use xlink:href="#g19" y="12903"/><use xlink:href="#g20" y="12920"/><use xlink:href="#g21" y="12937"/><use xlink:href="#g22" y="12954"/><rect x="0" y="12971" width="8" height="17" class="foreground"/><use xlink:href="#g4" y="12971"/></g><g><use xlink:href="#g3" y="13056"/><use xlink:href="#g5" y="13073"/><use xlink:href="#g6" y="13090"/><use xlink:href="#g7" y="13107"/><use xlink:href="#g8" y="13124"/><use xlink:href="#g9" y="13141"/><use xlink:href="#g10" y="13158"/><use xlink:href="#g9" y="13175"/><use xlink:href="#g12" y="13192"/><use xlink:href="#g5" y="13209"/><use xlink:href="#g6" y="13226"/><use xlink:href="#g7" y="13243"/><use xlink:href="#g13" y="13260"/><use xlink:href="#g8" y="13277"/><use xlink:href="#g9" y="13294"/><use xlink:href="#g14" y="13311"/><use xlink:href="#g9" y="13328"/><use xlink:href="#g16" y="13345"/><use xlink:href="#g5" y="13362"/><use xlink:href="#g17" y="13379"/><use xlink:href="#g7" y="13396"/><use xlink:href="#g18" y="13413"/><use xlink:href="#g9" y="13430"/><use xlink:href="#g19" y="13447"/><use xlink:href="#g20" y="13464"/><use xlink:href="#g21" y="13481"/><use xlink:href="#g22" y="13498"/><use xlink:href="#g23" y="13515"/><rect x="0" y="13532" width="8" height="17" class="foreground"/><use xlink:href="#g4" y="13532"/></g><g><use xlink:href="#g3" y="13600"/><use xlink:href="#g5" y="13617"/><use xlink:href="#g6" y="13634"/><use xlink:href="#g7" y="13651"/><use xlink:href="#g8" y="13668"/><use xlink:href="#g9" y="13685"/><use xlink:href="#g10" y="13702"/><use xlink:href="#g9" y="13719"/><use xlink:href="#g12" y="13736"/><use xlink:href="#g5" y="13753"/><use xlink:href="#g6" y="13770"/><use xlink:href="#g7" y="13787"/><use xlink:href="#g13" y="13804"/><use xlink:href="#g8" y="13821"/><use xlink:href="#g9" y="13838"/><use xlink:href="#g14" y="13855"/><use xlink:href="#g9" y="13872"/><use xlink:href="#g16" y="13889"/><use xlink:href="#g5" y="13906"/><use xlink:href="#g17" y="13923"/><use xlink:href="#g7" y="13940"/><use xlink:href="#g18" y="13957"/><use xlink:href="#g9" y="13974"/><use xlink:href="#g19" y="13991"/><use xlink:href="#g20" y="14008"/><use xlink:href="#g21" y="14025"/><use xlink:href="#g22" y="14042"/><use xlink:href="#g23" y="14059"/><use xlink:href="#g24" y="14076"/><rect x="0" y="14093" width="8" height="17" class="foreground"/><use xlink:href="#g4" y="14093"/></g><g><use xlink:href="#g5" y="14144"/><use xlink:href="#g6" y="14161"/><use xlink:href="#g7" y="14178"/><use xlink:href="#g8" y="14195"/><use xlink:href="#g9" y="14212"/><use xlink:href="#g10" y="14229"/><use xlink:href="#g9" y="14246"/><use xlink:href="#g12" y="14263"/><use xlink:href="#g5" y="14280"/><use xlink:href="#g6" y="14297"/><use xlink:href="#g7" y="14314"/><use xlink:href="#g13" y="14331"/><use xlink:href="#g8" y="14348"/><use xlink:href="#g9" y="14365"/><use xlink:href="#g14" y="14382"/><use xlink:href="#g9" y="14399"/><use xlink:href="#g16" y="14416"/><use xlink:href="#g5" y="14433"/><use xlink:href="#g17" y="14450"/><use xlink:href="#g7" y="14467"/><use xlink:href="#g18" y="14484"/><use xlink:href="#g9" y="14501"/><use xlink:href="#g19" y="14518"/><use xlink:href="#g20" y="14535"/><use xlink:href="#g21" y="14552"/><use xlink:href="#g22" y="14569"/><use xlink:href="#g23" y="14586"/><use xlink:href="#g24" y="14603"/><use xlink:href="#g25" y="14620"/><rect x="0" y="14637" width="8" height="17" class="foreground"/><use xlink:href="#g4" y="14637"/></g><g><use xlink:href="#g6" y="14688"/><use xlink:href="#g7" y="14705"/><use xlink:href="#g8" y="14722"/><use xlink:href="#g9" y="14739"/><use xlink:href="#g10" y="14756"/><use xlink:href="#g9" y="14773"/><use xlink:href="#g12" y="14790"/><use xlink:href="#g5" y="14807"/><use xlink:href="#g6" y="14824"/><use xlink:href="#g7" y="14841"/><use xlink:href="#g13" y="14858"/><use xlink:href="#g8" y="14875"/><use xlink:href="#g9" y="14892"/><use xlink:href="#g14" y="14909"/><use xlink:href="#g9" y="14926"/><use xlink:href="#g16" y="14943"/><use xlink:href="#g5" y="14960"/><use xlink:href="#g17" y="14977"/><use xlink:href="#g7" y="14994"/><use xlink:href="#g18" y="15011"/><use xlink:href="#g9" y="15028"/><use xlink:href="#g19" y="15045"/><use xlink:href="#g20" y="15062"/><use xlink:href="#g21" y="15079"/><use xlink:href="#g22" y="15096"/><use xlink:href="#g23" y="15113"/><use xlink:href="#g24" y="15130"/><use xlink:href="#g25" y="15147"/><use xlink:href="#g26" y="15164"/><rect x="0" y="15181" width="8" height="17" class="foreground"/><use xlink:href="#g4" y="15181"/></g><g><use xlink:href="#g7" y="15232"/><use xlink:href="#g8" y="15249"/><use xlink:href="#g9" y="15266"/><use xlink:href="#g10" y="15283"/><use xlink:href="#g9" y="15300"/><use xlink:href="#g12" y="15317"/><use xlink:href="#g5" y="15334"/><use xlink:href="#g6" y="15351"/><use xlink:href="#g7" y="15368"/><use xlink:href="#g13" y="15385"/><use xlink:href="#g8" y="15402"/><use xlink:href="#g9" y="15419"/><use xlink:href="#g14" y="15436"/><use xlink:href="#g9" y="15453"/><use xlink:href="#g16" y="15470"/><use xlink:href="#g5" y="15487"/><use xlink:href="#g17" y="15504"/><use xlink:href="#g7" y="15521"/><use xlink:href="#g18" y="15538"/><use xlink:href="#g9" y="15555"/><use xlink:href="#g19" y="15572"/><use xlink:href="#g20" y="15589"/><use xlink:href="#g21" y="15606"/><use xlink:href="#g22" y="15623"/><use xlink:href="#g23" y="15640"/><use xlink:href="#g24" y="15657"/><use xlink:href="#g25" y="15674"/><use xlink:href="#g26" y="15691"/><use xlink:href="#g27" y="15708"/><rect x="0" y="15725" width="8" height="17" class="foreground"/><use xlink:href="#g4" y="15725"/></g><g><use xlink:href="#g8" y="15776"/><use xlink:href="#g9" y="15793"/><use xlink:href="#g10" y="15810"/><use xlink:href="#g9" y="15827"/><use xlink:href="#g12" y="15844"/><use xlink:href="#g5" y="15861"/><use xlink:href="#g6" y="15878"/><use xlink:href="#g7" y="15895"/><use xlink:href="#g13" y="15912"/><use xlink:href="#g8" y="15929"/><use xlink:href="#g9" y="15946"/><use xlink:href="#g14" y="15963"/><use xlink:href="#g9" y="15980"/><use xlink:href="#g16" y="15997"/><use xlink:href="#g5" y="16014"/><use xlink:href="#g17" y="16031"/><use xlink:href="#g7" y="16048"/><use xlink:href="#g18" y="16065"/><use xlink:href="#g9" y="16082"/><use xlink:href="#g19" y="16099"/><use xlink:href="#g20" y="16116"/><use xlink:href="#g21" y="16133"/><use xlink:href="#g22" y="16150"/><use xlink:href="#g23" y="16167"/><use xlink:href="#g24" y="16184"/><use xlink:href="#g25" y="16201"/><use xlink:href="#g26" y="16218"/><use xlink:href="#g27" y="16235"/><use xlink:href="#g28" y="16252"/><rect x="0" y="16269" width="8" height="17" class="foreground"/><use xlink:href="#g4" y="16269"/></g><g><use xlink:href="#g12" y="16320"/><use xlink:href="#g5" y="16337"/><use xlink:href="#g6" y="16354"/><use xlink:href="#g7" y="16371"/><use xlink:href="#g13" y="16388"/><use xlink:href="#g8" y="16405"/><use xlink:href="#g9" y="16422"/><use xlink:href="#g14" y="16439"/><use xlink:href="#g9" y="16456"/><use xlink:href="#g16" y="16473"/><use xlink:href="#g5" y="16490"/><use xlink:href="#g17" y="16507"/><use xlink:href="#g7" y="16524"/><use xlink:href="#g18" y="16541"/><use xlink:href="#g9" y="16558"/><use xlink:href="#g19" y="16575"/><use xlink:href="#g20" y="16592"/><use xlink:href="#g21" y="16609"/><use xlink:href="#g22" y="16626"/><use xlink:href="#g23" y="16643"/><use xlink:href="#g24" y="16660"/><use xlink:href="#g25" y="16677"/><use xlink:href="#g26" y="16694"/><use xlink:href="#g27" y="16711"/><use xlink:href="#g28" y="16728"/><use xlink:href="#g9" y="16745"/><use xlink:href="#g29" y="16762"/><use xlink:href="#g30" y="16779"/><use xlink:href="#g9" y="16796"/><rect x="0" y="16813" width="8" height="17" class="foreground"/><use xlink:href="#g4" y="16813"/></g><g><use xlink:href="#g12" y="16864"/><use xlink:href="#g5" y="16881"/><use xlink:href="#g6" y="16898"/><use xlink:href="#g7" y="16915"/><use xlink:href="#g13" y="16932"/><use xlink:href="#g8" y="16949"/><use xlink:href="#g9" y="16966"/><use xlink:href="#g14" y="16983"/><use xlink:href="#g9" y="17000"/><use xlink:href="#g16" y="17017"/><use xlink:href="#g5" y="17034"/><use xlink:href="#g17" y="17051"/><use xlink:href="#g7" y="17068"/><use xlink:href="#g18" y="17085"/><use xlink:href="#g9" y="17102"/><use xlink:href="#g19" y="17119"/><use xlink:href="#g20" y="17136"/><use xlink:href="#g21" y="17153"/><use xlink:href="#g22" y="17170"/><use xlink:href="#g23" y="17187"/><use xlink:href="#g24" y="17204"/><use xlink:href="#g25" y="17221"/><use xlink:href="#g26" y="17238"/><use xlink:href="#g27" y="17255"/><use xlink:href="#g28" y="17272"/><use xlink:href="#g9" y="17289"/><use xlink:href="#g29" y="17306"/><use xlink:href="#g30" y="17323"/><use xlink:href="#g9" y="17340"/><rect x="248" y="17357" width="8" height="17" class="foreground"/><use xlink:href="#g1" y="17357"/></g><g><use xlink:href="#g5" y="17408"/><use xlink:href="#g6" y="17425"/><use xlink:href="#g7" y="17442"/><use xlink:href="#g13" y="17459"/><use xlink:href="#g8" y="17476"/><use xlink:href="#g9" y="17493"/><use xlink:href="#g14" y="17510"/><use xlink:href="#g9" y="17527"/><use xlink:href="#g16" y="17544"/><use xlink:href="#g5" y="17561"/><use xlink:href="#g17" y="17578"/><use xlink:href="#g7" y="17595"/><use xlink:href="#g18" y="17612"/><use xlink:href="#g9" y="17629"/><use xlink:href="#g19" y="17646"/><use xlink:href="#g20" y="17663"/><use xlink:href="#g21" y="17680"/><use xlink:href="#g22" y="17697"/><use xlink:href="#g23" y="17714"/><use xlink:href="#g24" y="17731"/><use xlink:href="#g25" y="17748"/><use xlink:href="#g26" y="17765"/><use xlink:href="#g27" y="17782"/><use xlink:href="#g28" y="17799"/><use xlink:href="#g9" y="17816"/><use xlink:href="#g29" y="17833"/><use xlink:href="#g30" y="17850"/><use xlink:href="#g9" y="17867"/><use xlink:href="#g31" y="17884"/><rect x="0" y="17901" width="8" height="17" class="foreground"/><use xlink:href="#g4" y="17901"/></g><g><use xlink:href="#g6" y="17952"/><use xlink:href="#g7" y="17969"/><use xlink:href="#g13" y="17986"/><use xlink:href="#g8" y="18003"/><use xlink:href="#g9" y="18020"/><use xlink:href="#g14" y="18037"/><use xlink:href="#g9" y="18054"/><use xlink:href="#g16" y="18071"/><use xlink:href="#g5" y="18088"/><use xlink:href="#g17" y="18105"/><use xlink:href="#g7" y="18122"/><use xlink:href="#g18" y="18139"/><use xlink:href="#g9" y="18156"/><use xlink:href="#g19" y="18173"/><use xlink:href="#g20" y="18190"/><use xlink:href="#g21" y="18207"/><use xlink:href="#g22" y="18224"/><use xlink:href="#g23" y="18241"/><use xlink:href="#g24" y="18258"/><use xlink:href="#g25" y="18275"/><use xlink:href="#g26" y="18292"/><use xlink:href="#g27" y="18309"/><use xlink:href="#g28" y="18326"/><use xlink:href="#g9" y="18343"/><use xlink:href="#g29" y="18360"/><use xlink:href="#g30" y="18377"/><use xlink:href="#g9" y="18394"/><use xlink:href="#g31" y="18411"/><use xlink:href="#g32" y="18428"/><rect x="0" y="18445" width="8" height="17" class="foreground"/><use xlink:href="#g4" y="18445"/></g></g></svg>
</svg>